<?xml version="1.0" encoding="utf-8"?>
<!-- Generator: Adobe Illustrator 24.1.0, SVG Export Plug-In . SVG Version: 6.00 Build 0)  -->
<svg version="1.1" id="Layer_1" xmlns="http://www.w3.org/2000/svg" xmlns:xlink="http://www.w3.org/1999/xlink" x="0px" y="0px"
	 viewBox="0 0 500 500" style="enable-background:new 0 0 500 500;" xml:space="preserve">
<style type="text/css">
	.st0{fill:#FFFFFF;}
</style>
<path class="st0" d="M83.18,339.18c-5.56-2.99-9.92-7.13-13.1-12.43c-3.18-5.3-4.77-11.29-4.77-17.97c0-6.68,1.59-15.67,4.77-20.97
	c3.18-5.3,7.55-9.44,13.1-12.43c5.56-2.99,11.8-4.48,18.74-4.48c5.84,0,11.13,1.03,15.85,3.08c4.72,2.06,8.69,5.31,11.9,9.16
	l-10.02,8.95c-4.56-5.27-10.21-7.9-16.96-7.9c-4.18,0-7.9,0.92-11.18,2.75c-3.28,1.83-5.83,4.38-7.66,7.66
	c-1.83,3.28-2.75,10-2.75,14.17c0,4.18,0.92,7.9,2.75,11.18c1.83,3.28,4.38,5.83,7.66,7.66c3.28,1.83,7,2.75,11.18,2.75
	c6.74,0,12.4-2.66,16.96-8l10.02,9.25c-3.21,3.92-7.19,6.91-11.95,8.96c-4.75,2.06-10.05,3.08-15.9,3.08
	C94.95,343.66,88.74,342.17,83.18,339.18z"/>
<path class="st0" d="M262.32,206.66c-26.12,1.53-35.25-33.46-19.73-50.15c12.45-12.77,34.01-9.58,45.09,5.72l24.7-22.05
	c-18.54-25.08-58.58-29.36-85.27-15.47c3.48,4.93,0.24,12.49-5.68,13.38c7.39,7.36-0.24,20.4-10.35,17.45
	c-1.01,5.8-8.46,8.92-13.33,5.5c-5.72,21.35,0.15,46.1,16.65,60.69l7.85-13.05l2.97,2.47l-7.76,13.19
	c4.41,3.51,9.62,6.52,14.93,8.72l5.69-13.45l3.14,2.09l-5.24,12.72c5.84,2.03,12.04,3.26,18.63,3.71l0.14-13.96l3.62,0.07
	l-0.14,14.06c6.96,0.17,14.03-0.48,20.24-1.93l-5.63-13.91l3.15-2.06l6.24,15c6.25-1.81,12.26-4.6,17.53-8.23l-10.17-13.24
	l2.88-3.25l10.87,13.8c3.35-2.73,6.37-5.85,9.05-9.35l-24.7-22.05C280.5,202.13,272.05,206.66,262.32,206.66z"/>
<g>
	<path class="st0" d="M147.12,389.26v-14.32h10.12v1.61h-8v4.67h7.45v1.61h-7.45v4.81h8.1v1.61H147.12z"/>
	<path class="st0" d="M162.59,374.94v14.32h-2.01v-14.32H162.59z"/>
	<path class="st0" d="M178.31,389.49c-0.79,0-1.42-0.12-1.91-0.35c-0.48-0.23-0.85-0.5-1.11-0.8c-0.26-0.3-0.46-0.55-0.6-0.74h-0.22
		v1.66h-1.94v-14.32h2.01v5.3h0.16c0.14-0.19,0.34-0.43,0.59-0.73c0.25-0.29,0.62-0.55,1.09-0.78s1.12-0.35,1.93-0.35
		c1.04,0,1.96,0.22,2.75,0.67c0.79,0.45,1.41,1.09,1.86,1.92c0.45,0.83,0.67,1.81,0.67,2.95c0,1.14-0.22,2.13-0.67,2.96
		c-0.45,0.83-1.06,1.48-1.86,1.93C180.27,389.26,179.35,389.49,178.31,389.49z M178.01,387.94c0.78,0,1.43-0.18,1.96-0.54
		c0.52-0.36,0.92-0.85,1.18-1.46c0.26-0.61,0.4-1.29,0.4-2.04c0-0.74-0.13-1.41-0.39-2.01c-0.26-0.6-0.65-1.07-1.18-1.43
		c-0.52-0.35-1.18-0.53-1.97-0.53c-0.77,0-1.41,0.17-1.93,0.5c-0.52,0.33-0.91,0.8-1.18,1.39c-0.26,0.59-0.4,1.29-0.4,2.08
		c0,0.79,0.13,1.5,0.4,2.1c0.27,0.61,0.66,1.08,1.19,1.43C176.63,387.77,177.26,387.94,178.01,387.94z"/>
	<path class="st0" d="M191.57,389.49c-1.13,0-2.12-0.23-2.97-0.69c-0.85-0.46-1.51-1.11-1.99-1.94c-0.48-0.83-0.71-1.8-0.71-2.9
		c0-1.12,0.24-2.1,0.71-2.94c0.47-0.84,1.14-1.49,1.99-1.95c0.85-0.46,1.84-0.69,2.97-0.69c1.14,0,2.13,0.23,2.99,0.69
		c0.85,0.46,1.52,1.11,1.99,1.95c0.48,0.84,0.71,1.82,0.71,2.94c0,1.1-0.24,2.07-0.71,2.9c-0.48,0.83-1.14,1.48-1.99,1.94
		C193.7,389.26,192.71,389.49,191.57,389.49z M191.57,387.94c0.84,0,1.53-0.19,2.07-0.56c0.54-0.37,0.94-0.86,1.2-1.47
		s0.39-1.26,0.39-1.97c0-0.71-0.13-1.37-0.39-1.98c-0.26-0.61-0.66-1.11-1.2-1.48c-0.54-0.37-1.23-0.56-2.07-0.56
		c-0.83,0-1.52,0.19-2.05,0.56c-0.53,0.38-0.93,0.87-1.19,1.48c-0.26,0.61-0.39,1.27-0.39,1.99c0,0.7,0.13,1.36,0.39,1.97
		c0.26,0.61,0.66,1.09,1.19,1.47C190.06,387.76,190.74,387.94,191.57,387.94z"/>
	<path class="st0" d="M205.25,389.49c-1.13,0-2.12-0.23-2.97-0.69c-0.85-0.46-1.51-1.11-1.99-1.94c-0.48-0.83-0.71-1.8-0.71-2.9
		c0-1.12,0.24-2.1,0.71-2.94c0.47-0.84,1.14-1.49,1.99-1.95c0.85-0.46,1.84-0.69,2.97-0.69c0.6,0,1.17,0.07,1.7,0.2
		c0.53,0.13,1.02,0.33,1.46,0.58c0.44,0.25,0.82,0.56,1.14,0.93c0.32,0.37,0.56,0.79,0.74,1.25l-1.93,0.47
		c-0.09-0.28-0.23-0.53-0.41-0.76s-0.41-0.43-0.67-0.6c-0.26-0.17-0.57-0.3-0.91-0.39s-0.72-0.14-1.13-0.14
		c-0.83,0-1.52,0.19-2.05,0.56c-0.53,0.38-0.93,0.87-1.19,1.48c-0.26,0.61-0.39,1.27-0.39,1.99c0,0.7,0.13,1.36,0.39,1.97
		c0.26,0.61,0.66,1.09,1.19,1.47c0.53,0.37,1.22,0.56,2.05,0.56c0.42,0,0.8-0.05,1.15-0.14c0.35-0.1,0.66-0.23,0.93-0.41
		c0.27-0.18,0.5-0.39,0.69-0.63c0.19-0.24,0.32-0.51,0.41-0.8l1.92,0.47c-0.16,0.48-0.41,0.91-0.73,1.28
		c-0.32,0.37-0.71,0.7-1.15,0.96c-0.45,0.27-0.94,0.47-1.48,0.61C206.44,389.42,205.86,389.49,205.25,389.49z"/>
	<path class="st0" d="M216.93,389.51c-0.79,0-1.5-0.13-2.14-0.38s-1.15-0.63-1.53-1.12c-0.38-0.49-0.57-1.09-0.57-1.8
		c0-0.62,0.14-1.11,0.42-1.5c0.28-0.38,0.66-0.69,1.13-0.91c0.47-0.22,0.99-0.39,1.57-0.5c0.57-0.11,1.15-0.2,1.73-0.26
		c0.74-0.08,1.35-0.15,1.82-0.19c0.47-0.04,0.81-0.12,1.04-0.23c0.23-0.11,0.34-0.29,0.34-0.56V382c0-0.45-0.1-0.83-0.29-1.14
		c-0.19-0.31-0.48-0.55-0.87-0.72c-0.39-0.17-0.87-0.25-1.45-0.25c-0.59,0-1.1,0.08-1.53,0.24c-0.42,0.16-0.77,0.36-1.03,0.6
		c-0.26,0.24-0.46,0.49-0.6,0.74l-1.93-0.55c0.32-0.65,0.75-1.16,1.29-1.53c0.54-0.37,1.14-0.63,1.79-0.78
		c0.65-0.15,1.3-0.23,1.94-0.23c0.42,0,0.89,0.04,1.42,0.13c0.53,0.09,1.04,0.26,1.54,0.51c0.49,0.26,0.9,0.64,1.23,1.14
		c0.32,0.5,0.48,1.17,0.48,2.01v7.08h-1.97v-1.46h-0.13c-0.14,0.25-0.37,0.51-0.68,0.77c-0.31,0.27-0.72,0.49-1.21,0.67
		C218.24,389.42,217.63,389.51,216.93,389.51z M217.27,387.98c0.74,0,1.37-0.13,1.88-0.37c0.51-0.25,0.9-0.58,1.17-0.98
		c0.27-0.4,0.4-0.82,0.4-1.25v-1.49c-0.08,0.08-0.26,0.16-0.53,0.23c-0.28,0.07-0.59,0.13-0.94,0.18c-0.35,0.05-0.69,0.09-1.03,0.13
		c-0.33,0.04-0.59,0.06-0.79,0.08c-0.48,0.05-0.93,0.14-1.35,0.26c-0.42,0.13-0.76,0.31-1.01,0.55c-0.25,0.24-0.38,0.57-0.38,0.98
		c0,0.37,0.11,0.68,0.33,0.93c0.22,0.25,0.53,0.44,0.91,0.57S216.78,387.98,217.27,387.98z"/>
	<path class="st0" d="M230.92,389.49c-1.03,0-1.95-0.23-2.74-0.68s-1.42-1.1-1.86-1.93c-0.45-0.83-0.67-1.82-0.67-2.96
		c0-1.13,0.22-2.12,0.67-2.95c0.45-0.83,1.07-1.47,1.87-1.92c0.79-0.45,1.71-0.67,2.74-0.67c0.81,0,1.45,0.12,1.93,0.35
		c0.48,0.23,0.84,0.49,1.1,0.78c0.26,0.29,0.45,0.53,0.59,0.73h0.16v-5.3h2.01v14.32h-1.94v-1.66h-0.22
		c-0.13,0.2-0.33,0.45-0.6,0.74c-0.26,0.3-0.64,0.56-1.11,0.8C232.35,389.37,231.72,389.49,230.92,389.49z M231.22,387.94
		c0.76,0,1.4-0.17,1.92-0.51c0.52-0.34,0.91-0.82,1.18-1.43c0.27-0.61,0.4-1.31,0.4-2.1c0-0.79-0.13-1.49-0.4-2.08
		c-0.26-0.59-0.66-1.06-1.18-1.39c-0.52-0.33-1.16-0.5-1.93-0.5c-0.79,0-1.44,0.18-1.97,0.53c-0.52,0.35-0.92,0.83-1.18,1.43
		c-0.26,0.6-0.39,1.27-0.39,2.01c0,0.75,0.13,1.43,0.4,2.04c0.26,0.61,0.66,1.1,1.19,1.46C229.8,387.76,230.45,387.94,231.22,387.94
		z"/>
	<path class="st0" d="M245.29,389.49c-1.13,0-2.12-0.23-2.97-0.69c-0.85-0.46-1.51-1.11-1.99-1.94c-0.48-0.83-0.71-1.8-0.71-2.9
		c0-1.12,0.24-2.1,0.71-2.94c0.47-0.84,1.14-1.49,1.99-1.95c0.85-0.46,1.84-0.69,2.97-0.69c1.14,0,2.13,0.23,2.99,0.69
		c0.85,0.46,1.52,1.11,1.99,1.95c0.48,0.84,0.71,1.82,0.71,2.94c0,1.1-0.24,2.07-0.71,2.9c-0.48,0.83-1.14,1.48-1.99,1.94
		C247.42,389.26,246.43,389.49,245.29,389.49z M245.29,387.94c0.84,0,1.53-0.19,2.07-0.56c0.54-0.37,0.94-0.86,1.2-1.47
		s0.39-1.26,0.39-1.97c0-0.71-0.13-1.37-0.39-1.98c-0.26-0.61-0.66-1.11-1.2-1.48c-0.54-0.37-1.23-0.56-2.07-0.56
		c-0.83,0-1.52,0.19-2.05,0.56c-0.53,0.38-0.93,0.87-1.19,1.48c-0.26,0.61-0.39,1.27-0.39,1.99c0,0.7,0.13,1.36,0.39,1.97
		c0.26,0.61,0.66,1.09,1.19,1.47C243.78,387.76,244.46,387.94,245.29,387.94z"/>
	<path class="st0" d="M264.56,389.49c-0.85,0-1.61-0.11-2.28-0.32c-0.66-0.21-1.21-0.53-1.64-0.96c-0.43-0.42-0.72-0.94-0.87-1.56
		l1.91-0.39c0.18,0.59,0.51,1.02,1.01,1.3c0.49,0.28,1.11,0.41,1.86,0.41c0.87,0,1.56-0.16,2.08-0.48c0.52-0.32,0.77-0.7,0.77-1.14
		c0-0.37-0.15-0.68-0.45-0.93c-0.3-0.25-0.76-0.43-1.38-0.55l-2.07-0.42c-1.13-0.23-1.97-0.59-2.52-1.07
		c-0.55-0.48-0.82-1.1-0.82-1.86c0-0.62,0.2-1.16,0.6-1.63c0.4-0.47,0.95-0.84,1.64-1.11c0.69-0.27,1.48-0.4,2.37-0.4
		c0.85,0,1.58,0.11,2.18,0.33c0.6,0.22,1.08,0.53,1.46,0.91c0.38,0.39,0.66,0.83,0.84,1.34l-1.82,0.4
		c-0.17-0.38-0.45-0.73-0.85-1.05c-0.4-0.31-1-0.47-1.8-0.47c-0.74,0-1.36,0.15-1.86,0.44c-0.49,0.29-0.74,0.67-0.74,1.11
		c0,0.4,0.17,0.72,0.5,0.96c0.33,0.24,0.87,0.43,1.59,0.58l1.88,0.38c1.13,0.23,1.96,0.59,2.51,1.07c0.54,0.48,0.81,1.09,0.81,1.83
		c0,0.63-0.21,1.19-0.62,1.68c-0.41,0.49-0.99,0.88-1.73,1.16C266.38,389.35,265.53,389.49,264.56,389.49z"/>
	<path class="st0" d="M275.85,389.51c-0.79,0-1.5-0.13-2.14-0.38c-0.64-0.26-1.15-0.63-1.53-1.12c-0.38-0.49-0.57-1.09-0.57-1.8
		c0-0.62,0.14-1.11,0.42-1.5c0.28-0.38,0.66-0.69,1.13-0.91c0.47-0.22,0.99-0.39,1.57-0.5c0.57-0.11,1.15-0.2,1.73-0.26
		c0.74-0.08,1.35-0.15,1.82-0.19c0.47-0.04,0.81-0.12,1.04-0.23c0.23-0.11,0.34-0.29,0.34-0.56V382c0-0.45-0.1-0.83-0.29-1.14
		c-0.19-0.31-0.48-0.55-0.87-0.72c-0.39-0.17-0.87-0.25-1.45-0.25c-0.59,0-1.1,0.08-1.53,0.24c-0.42,0.16-0.77,0.36-1.03,0.6
		c-0.26,0.24-0.46,0.49-0.6,0.74l-1.93-0.55c0.32-0.65,0.75-1.16,1.29-1.53c0.54-0.37,1.14-0.63,1.79-0.78
		c0.65-0.15,1.3-0.23,1.94-0.23c0.42,0,0.89,0.04,1.42,0.13c0.53,0.09,1.04,0.26,1.54,0.51c0.49,0.26,0.9,0.64,1.23,1.14
		c0.32,0.5,0.48,1.17,0.48,2.01v7.08h-1.97v-1.46h-0.13c-0.14,0.25-0.37,0.51-0.68,0.77c-0.31,0.27-0.72,0.49-1.21,0.67
		C277.16,389.42,276.56,389.51,275.85,389.51z M276.2,387.98c0.74,0,1.37-0.13,1.88-0.37c0.51-0.25,0.9-0.58,1.17-0.98
		c0.27-0.4,0.4-0.82,0.4-1.25v-1.49c-0.08,0.08-0.26,0.16-0.53,0.23c-0.28,0.07-0.59,0.13-0.94,0.18c-0.35,0.05-0.69,0.09-1.03,0.13
		c-0.33,0.04-0.59,0.06-0.79,0.08c-0.48,0.05-0.93,0.14-1.35,0.26c-0.42,0.13-0.76,0.31-1.01,0.55c-0.25,0.24-0.38,0.57-0.38,0.98
		c0,0.37,0.11,0.68,0.33,0.93c0.22,0.25,0.53,0.44,0.91,0.57C275.26,387.92,275.7,387.98,276.2,387.98z"/>
	<path class="st0" d="M287.18,374.94v14.32h-2.01v-14.32H287.18z"/>
	<path class="st0" d="M294.93,389.39c-0.84,0-1.58-0.15-2.21-0.45c-0.64-0.3-1.13-0.75-1.48-1.35c-0.35-0.6-0.53-1.36-0.53-2.26
		v-6.82h2.01v6.68c0,0.83,0.25,1.47,0.76,1.94c0.51,0.47,1.19,0.7,2.06,0.7c0.59,0,1.13-0.11,1.6-0.34
		c0.47-0.22,0.84-0.55,1.12-0.99c0.27-0.43,0.41-0.95,0.41-1.56v-6.44h2.02v10.75h-1.94v-2.6H299c-0.39,1.01-0.93,1.71-1.64,2.12
		C296.65,389.19,295.84,389.39,294.93,389.39z"/>
	<path class="st0" d="M308.86,389.49c-1.03,0-1.95-0.23-2.74-0.68c-0.79-0.45-1.42-1.1-1.86-1.93c-0.45-0.83-0.67-1.82-0.67-2.96
		c0-1.13,0.22-2.12,0.67-2.95c0.45-0.83,1.07-1.47,1.87-1.92c0.79-0.45,1.71-0.67,2.74-0.67c0.81,0,1.45,0.12,1.93,0.35
		c0.48,0.23,0.84,0.49,1.1,0.78c0.26,0.29,0.45,0.53,0.58,0.73h0.16v-5.3h2.01v14.32h-1.94v-1.66h-0.22
		c-0.13,0.2-0.33,0.45-0.6,0.74c-0.26,0.3-0.64,0.56-1.11,0.8C310.3,389.37,309.66,389.49,308.86,389.49z M309.17,387.94
		c0.76,0,1.4-0.17,1.92-0.51c0.52-0.34,0.91-0.82,1.18-1.43c0.27-0.61,0.4-1.31,0.4-2.1c0-0.79-0.13-1.49-0.4-2.08
		c-0.26-0.59-0.66-1.06-1.18-1.39c-0.52-0.33-1.16-0.5-1.93-0.5c-0.79,0-1.44,0.18-1.97,0.53c-0.52,0.35-0.92,0.83-1.18,1.43
		c-0.26,0.6-0.39,1.27-0.39,2.01c0,0.75,0.13,1.43,0.4,2.04c0.26,0.61,0.66,1.1,1.19,1.46
		C307.74,387.76,308.39,387.94,309.17,387.94z"/>
	<path class="st0" d="M321.65,389.51c-0.79,0-1.5-0.13-2.14-0.38c-0.64-0.26-1.15-0.63-1.53-1.12c-0.38-0.49-0.57-1.09-0.57-1.8
		c0-0.62,0.14-1.11,0.42-1.5c0.28-0.38,0.66-0.69,1.13-0.91c0.47-0.22,0.99-0.39,1.57-0.5c0.57-0.11,1.15-0.2,1.73-0.26
		c0.74-0.08,1.35-0.15,1.82-0.19c0.47-0.04,0.81-0.12,1.04-0.23c0.23-0.11,0.34-0.29,0.34-0.56V382c0-0.45-0.1-0.83-0.29-1.14
		c-0.19-0.31-0.48-0.55-0.87-0.72c-0.39-0.17-0.87-0.25-1.45-0.25c-0.59,0-1.1,0.08-1.53,0.24c-0.42,0.16-0.77,0.36-1.03,0.6
		c-0.26,0.24-0.46,0.49-0.6,0.74l-1.93-0.55c0.32-0.65,0.75-1.16,1.29-1.53c0.54-0.37,1.14-0.63,1.79-0.78
		c0.65-0.15,1.3-0.23,1.94-0.23c0.42,0,0.89,0.04,1.42,0.13s1.04,0.26,1.54,0.51c0.49,0.26,0.9,0.64,1.23,1.14
		c0.32,0.5,0.48,1.17,0.48,2.01v7.08h-1.97v-1.46h-0.13c-0.14,0.25-0.37,0.51-0.68,0.77c-0.31,0.27-0.72,0.49-1.21,0.67
		C322.96,389.42,322.36,389.51,321.65,389.51z M322,387.98c0.74,0,1.37-0.13,1.88-0.37c0.51-0.25,0.9-0.58,1.17-0.98
		c0.27-0.4,0.4-0.82,0.4-1.25v-1.49c-0.08,0.08-0.26,0.16-0.53,0.23c-0.28,0.07-0.59,0.13-0.94,0.18c-0.35,0.05-0.69,0.09-1.03,0.13
		c-0.33,0.04-0.59,0.06-0.79,0.08c-0.48,0.05-0.93,0.14-1.35,0.26c-0.42,0.13-0.76,0.31-1.01,0.55c-0.25,0.24-0.38,0.57-0.38,0.98
		c0,0.37,0.11,0.68,0.33,0.93c0.22,0.25,0.53,0.44,0.91,0.57C321.06,387.92,321.5,387.98,322,387.98z"/>
	<path class="st0" d="M336.76,389.49c-0.79,0-1.42-0.12-1.91-0.35c-0.48-0.23-0.85-0.5-1.11-0.8s-0.46-0.55-0.6-0.74h-0.22v1.66
		h-1.94v-14.32h2.01v5.3h0.16c0.14-0.19,0.34-0.43,0.59-0.73c0.25-0.29,0.62-0.55,1.09-0.78s1.12-0.35,1.93-0.35
		c1.04,0,1.96,0.22,2.75,0.67c0.79,0.45,1.41,1.09,1.86,1.92c0.45,0.83,0.67,1.81,0.67,2.95c0,1.14-0.22,2.13-0.67,2.96
		c-0.45,0.83-1.06,1.48-1.86,1.93S337.8,389.49,336.76,389.49z M336.46,387.94c0.78,0,1.43-0.18,1.96-0.54
		c0.52-0.36,0.92-0.85,1.18-1.46c0.26-0.61,0.4-1.29,0.4-2.04c0-0.74-0.13-1.41-0.39-2.01c-0.26-0.6-0.65-1.07-1.18-1.43
		c-0.52-0.35-1.18-0.53-1.97-0.53c-0.77,0-1.41,0.17-1.93,0.5c-0.52,0.33-0.91,0.8-1.18,1.39c-0.26,0.59-0.4,1.29-0.4,2.08
		c0,0.79,0.13,1.5,0.4,2.1c0.27,0.61,0.66,1.08,1.19,1.43C335.07,387.77,335.71,387.94,336.46,387.94z"/>
	<path class="st0" d="M346.96,374.94v14.32h-2.01v-14.32H346.96z"/>
	<path class="st0" d="M355.71,389.49c-1.2,0-2.24-0.23-3.11-0.69c-0.87-0.46-1.55-1.11-2.02-1.93c-0.47-0.83-0.71-1.79-0.71-2.89
		c0-1.1,0.23-2.07,0.69-2.91c0.46-0.84,1.11-1.5,1.96-1.97c0.84-0.47,1.83-0.71,2.96-0.71c0.66,0,1.31,0.09,1.96,0.28
		c0.64,0.19,1.23,0.49,1.75,0.91c0.52,0.42,0.94,0.97,1.25,1.66c0.31,0.69,0.47,1.53,0.47,2.52v0.72h-9.67v-1.46h8.59l-0.94,0.54
		c0-0.7-0.13-1.33-0.38-1.88c-0.26-0.55-0.64-0.98-1.14-1.29c-0.51-0.31-1.13-0.47-1.88-0.47c-0.75,0-1.39,0.16-1.93,0.48
		c-0.53,0.32-0.94,0.73-1.23,1.24c-0.28,0.51-0.42,1.06-0.42,1.64v0.97c0,0.79,0.16,1.47,0.48,2.02c0.32,0.55,0.77,0.97,1.34,1.26
		c0.58,0.28,1.24,0.43,2,0.43c0.49,0,0.94-0.06,1.34-0.18c0.4-0.12,0.75-0.31,1.04-0.55c0.29-0.25,0.51-0.55,0.67-0.92l1.94,0.46
		c-0.19,0.54-0.52,1.01-0.98,1.42c-0.46,0.41-1.03,0.73-1.71,0.96C357.33,389.38,356.57,389.49,355.71,389.49z"/>
</g>
<path class="st0" d="M178.13,295.63c4.3,3.82,6.46,9.59,6.46,17.3v29.58h-14.07v-6.46c-2.83,4.82-8.09,7.23-15.8,7.23
	c-3.98,0-7.44-0.67-10.36-2.02c-2.92-1.35-5.15-3.21-6.7-5.59c-1.54-2.38-2.31-5.07-2.31-8.09c0-4.82,1.81-8.61,5.44-11.37
	c3.63-2.76,9.23-4.14,16.81-4.14h11.95c0-3.28-1-5.8-2.99-7.56c-1.99-1.77-4.98-2.65-8.96-2.65c-2.76,0-5.48,0.43-8.14,1.3
	c-2.67,0.87-4.93,2.04-6.79,3.52l-5.4-10.5c2.83-1.99,6.21-3.53,10.17-4.62c3.95-1.09,8.01-1.64,12.19-1.64
	C167.66,289.9,173.83,291.81,178.13,295.63z M165.32,331.38c1.99-1.19,3.4-2.94,4.24-5.25v-5.3h-10.31c-6.17,0-9.25,2.02-9.25,6.07
	c0,1.93,0.75,3.45,2.26,4.58c1.51,1.12,3.58,1.69,6.21,1.69C161.05,333.16,163.33,332.57,165.32,331.38z"/>
<path class="st0" d="M227.18,290.67h15.03v51.84h-15.03V290.67z"/>
<path class="st0" d="M299.97,293.22c3.95,2.22,7.05,5.33,9.3,9.35c2.25,4.02,3.37,8.69,3.37,14.02c0,5.33-1.12,10.01-3.37,14.02
	c-2.25,4.02-5.35,7.13-9.3,9.35c-3.95,2.22-8.33,3.32-13.15,3.32c-7.13,0-12.56-2.25-16.28-6.74v5.97h-14.36v-71.49h15.03v25.15
	c3.79-4.17,8.99-6.26,15.61-6.26C291.64,289.9,296.02,291.01,299.97,293.22z M293.71,327.04c2.47-2.6,3.71-6.09,3.71-10.45
	c0-4.37-1.24-7.85-3.71-10.45c-2.47-2.6-5.64-3.9-9.49-3.9c-3.85,0-7.02,1.3-9.49,3.9c-2.47,2.6-3.71,6.09-3.71,10.45
	c0,4.37,1.24,7.85,3.71,10.45c2.47,2.6,5.64,3.9,9.49,3.9C288.07,330.94,291.23,329.64,293.71,327.04z"/>
<path class="st0" d="M322.66,290.67h15.03v51.84h-15.03V290.67z"/>
<circle class="st0" cx="330.18" cy="278.72" r="7.83"/>
<path class="st0" d="M385.1,340c-1.48,1.09-3.29,1.91-5.44,2.46c-2.15,0.55-4.42,0.82-6.79,0.82c-6.17,0-10.94-1.57-14.31-4.72
	c-3.37-3.15-5.06-7.77-5.06-13.87v-21.29h-8v-11.56h8v-20.72h15.03v20.72h12.91v11.56h-12.91v21.1c0,2.18,0.56,3.87,1.69,5.06
	c1.12,1.19,2.71,1.78,4.77,1.78c2.38,0,4.4-0.64,6.07-1.93L385.1,340z"/>
<path class="st0" d="M438.83,301.96c-1.14,0.65-2.47,1.03-3.88,1.03c-4.32,0-7.83-3.5-7.83-7.83c0-0.6,0.07-1.18,0.2-1.74
	c-1.21,0.77-2.65,1.22-4.2,1.22c-3.23,0-5.99-1.95-7.19-4.74c-0.07,0-0.13,0-0.2,0c-5.2,0-9.91,1.14-14.12,3.42
	c-4.21,2.28-7.52,5.46-9.92,9.54c-2.41,4.08-3.61,8.66-3.61,13.73c0,5.14,1.22,9.73,3.66,13.78c2.44,4.05,5.91,7.21,10.41,9.49
	c4.5,2.28,9.67,3.42,15.51,3.42c9.38,0,16.51-2.79,21.39-8.38l-8-8.67c-1.8,1.73-3.74,3-5.83,3.81c-2.09,0.8-4.48,1.2-7.18,1.2
	c-3.92,0-7.19-0.93-9.83-2.79c-2.63-1.86-4.3-4.4-5.01-7.61h39.22c0.19-2.5,0.29-3.85,0.29-4.05c0-5.4-1.17-10.13-3.52-14.21
	C439.08,302.36,438.96,302.16,438.83,301.96z M403.02,312.06c0.51-3.34,1.93-5.97,4.24-7.9c2.31-1.93,5.17-2.89,8.58-2.89
	c3.34,0,6.17,0.98,8.48,2.94c2.31,1.96,3.72,4.58,4.24,7.85H403.02z"/>
<circle class="st0" cx="234.69" cy="278.77" r="7.83"/>
<polygon class="st0" points="198.15,272.37 198.15,273.93 198.14,273.93 "/>
<path class="st0" d="M198.15,270.8v71.58h15.03v-68.43l4.62,0.01l0-3.13L198.15,270.8z M203.73,327.22h-5.57v-1.05h5.57V327.22z
	 M203.73,320.26h-5.57v-1.04h5.57V320.26z M203.73,313.3h-5.57v-1.04h5.57V313.3z M203.73,306.34h-5.57v-1.04h5.57V306.34z
	 M203.73,299.39h-5.57v-1.05h5.57V299.39z M203.73,292.43h-5.57v-1.04h5.57V292.43z M203.73,285.47h-5.57v-1.04h5.57V285.47z
	 M203.73,278.52h-5.57v-1.04h5.57V278.52z"/>
</svg>
